<?xml version="1.0" encoding="utf-8"?>
<!-- Generator: Adobe Illustrator 16.0.0, SVG Export Plug-In . SVG Version: 6.00 Build 0)  -->
<!DOCTYPE svg PUBLIC "-//W3C//DTD SVG 1.0//EN" "http://www.w3.org/TR/2001/REC-SVG-20010904/DTD/svg10.dtd" [
	<!ENTITY ns_flows "http://ns.adobe.com/Flows/1.0/">
	<!ENTITY ns_extend "http://ns.adobe.com/Extensibility/1.0/">
	<!ENTITY ns_ai "http://ns.adobe.com/AdobeIllustrator/10.0/">
	<!ENTITY ns_graphs "http://ns.adobe.com/Graphs/1.0/">
	<!ENTITY ns_vars "http://ns.adobe.com/Variables/1.0/">
	<!ENTITY ns_imrep "http://ns.adobe.com/ImageReplacement/1.0/">
	<!ENTITY ns_sfw "http://ns.adobe.com/SaveForWeb/1.0/">
	<!ENTITY ns_custom "http://ns.adobe.com/GenericCustomNamespace/1.0/">
	<!ENTITY ns_adobe_xpath "http://ns.adobe.com/XPath/1.0/">
]>
<svg version="1.0" xmlns:x="&ns_extend;" xmlns:i="&ns_ai;" xmlns:graph="&ns_graphs;"
	 xmlns="http://www.w3.org/2000/svg" xmlns:xlink="http://www.w3.org/1999/xlink" xmlns:a="http://ns.adobe.com/AdobeSVGViewerExtensions/3.0/"
	 x="0px" y="0px" width="75px" height="75px" viewBox="0 0 50 50" enable-background="new 0 0 50 50" xml:space="preserve">
<metadata>
	<sfw  xmlns="&ns_sfw;">
		<slices></slices>
		<sliceSourceBounds  height="44.980957" width="46.1435547" bottomLeftOrigin="true" y="-47.9511719" x="2.3398438">
			</sliceSourceBounds>
	</sfw>
</metadata>
<g id="Capa_1" display="none">
	<path id="copia_x5F_orig" display="inline" fill="#2970CA" d="M25.5068359,2.9702148
		c-13.4125977,0-23.1669922,8.9521484-23.1669922,22.5175781c0,13.934082,9.5795898,22.4633789,22.9912109,22.4633789
		c13.3925781,0,23.1523438-8.9736328,23.1523438-22.4633789C48.4833984,11.7373047,38.8964844,2.9702148,25.5068359,2.9702148
		 M36.9921875,34.6699219c-0.1962891,0-0.3867188-0.0126953-0.578125-0.0361328v0.0361328H14.6777344v-0.0361328
		c-3.3344727-0.2822266-5.9506836-3.0878906-5.9506836-6.4902344c0-3.1533203,2.2270508-5.784668,5.206543-6.387207
		c-0.2314453-0.7836914-0.3632813-1.5874023-0.3632813-2.4160156c0-4.6738281,3.7900391-8.4506836,8.4482422-8.4506836
		c4.1220703,0,7.5380859,2.9370117,8.2900391,6.8383789c0.4316406-0.1005859,0.8857422-0.1586914,1.3486328-0.1586914
		c3.3828125,0,6.1103516,2.7568359,6.1103516,6.1274414c0,0.2714844-0.0205078,0.5664063-0.0546875,0.8286133
		c2.4736328,0.3374023,4.3808594,2.4599609,4.3808594,5.046875C42.09375,32.3876953,39.8164063,34.6699219,36.9921875,34.6699219"/>
</g>
<g id="Capa_2">
	<path fill="#0172ea" d="M36.9921875,34.6699219c-0.1962891,0-0.3867188-0.0126953-0.578125-0.0361328v0.0361328H14.6777344
		v-0.0361328c-3.3344727-0.2822266-5.9506836-3.0878906-5.9506836-6.4902344c0-3.1533203,2.2270508-5.784668,5.206543-6.387207
		c-0.2314453-0.7836914-0.3632813-1.5874023-0.3632813-2.4160156c0-4.6738281,3.7900391-8.4506836,8.4482422-8.4506836
		c4.1220703,0,7.5380859,2.9370117,8.2900391,6.8383789c0.4316406-0.1005859,0.8857422-0.1586914,1.3486328-0.1586914
		c3.3828125,0,6.1103516,2.7568359,6.1103516,6.1274414c0,0.2714844-0.0205078,0.5664063-0.0546875,0.8286133
		c2.4736328,0.3374023,4.3808594,2.4599609,4.3808594,5.046875C42.09375,32.3876953,39.8164063,34.6699219,36.9921875,34.6699219"/>
	<path fill="#FFFFFF" d="M25.5068359,2.9702148c-13.4125977,0-23.1669922,8.9521484-23.1669922,22.5175781
		c0,13.934082,9.5795898,22.4633789,22.9912109,22.4633789c13.3925781,0,23.1523438-8.9736328,23.1523438-22.4633789
		C48.4833984,11.7373047,38.8964844,2.9702148,25.5068359,2.9702148 M36.9921875,34.6699219
		c-0.1962891,0-0.3867188-0.0126953-0.578125-0.0361328v0.0361328H14.6777344v-0.0361328
		c-3.3344727-0.2822266-5.9506836-3.0878906-5.9506836-6.4902344c0-3.1533203,2.2270508-5.784668,5.206543-6.387207
		c-0.2314453-0.7836914-0.3632813-1.5874023-0.3632813-2.4160156c0-4.6738281,3.7900391-8.4506836,8.4482422-8.4506836
		c4.1220703,0,7.5380859,2.9370117,8.2900391,6.8383789c0.4316406-0.1005859,0.8857422-0.1586914,1.3486328-0.1586914
		c3.3828125,0,6.1103516,2.7568359,6.1103516,6.1274414c0,0.2714844-0.0205078,0.5664063-0.0546875,0.8286133
		c2.4736328,0.3374023,4.3808594,2.4599609,4.3808594,5.046875C42.09375,32.3876953,39.8164063,34.6699219,36.9921875,34.6699219"/>
</g>
</svg>
